<?xml version="1.0" encoding="utf-8"?>
<!-- Uploaded to: SVG Repo, www.svgrepo.com, Generator: SVG Repo Mixer Tools -->
<svg fill="#000000" width="800px" height="800px" viewBox="0 0 32 32" version="1.1" xmlns="http://www.w3.org/2000/svg">
<title>fish</title>
<path d="M30.952 16.877c-4.143-7.097-8.193-9.493-12.186-9.023l-1.681-3.747-1.557 4.448-3.143-1.861-0.050 3.934-2.906 0.111 0.782 1.906c-1.092 1.013-2.181 2.146-3.269 3.359l-5.792-2.83 2.8 4.737-2.275 2.438 2.262 0.174-2.525 3.736 6.744-4.051 5.463 2.653-3.105 1.085 2.219 0.86-2.032 1.388 3.256 0.061-0.288 2.921 3.702-4.493c0.132-0.003 0.263-0.006 0.393-0.011 0.018-0.001 0.035-0.001 0.053-0.002 0.128-0.005 0.255-0.010 0.381-0.017 0.012-0.001 0.023-0.001 0.035-0.002 0.123-0.007 0.246-0.014 0.367-0.023 0.008-0.001 0.015-0.001 0.023-0.002 0.124-0.009 0.246-0.019 0.367-0.029 0.017-0.002 0.034-0.003 0.051-0.005 0.244-0.022 0.483-0.047 0.718-0.076 0.014-0.002 0.028-0.003 0.042-0.005 0.116-0.015 0.23-0.030 0.344-0.046 0.012-0.002 0.024-0.003 0.036-0.005 0.114-0.017 0.228-0.034 0.34-0.052 0.001-0 0.002-0 0.003-0.001 0.113-0.018 0.224-0.038 0.335-0.057 0.014-0.003 0.028-0.005 0.043-0.008 0.11-0.020 0.22-0.041 0.328-0.063 0.001-0 0.001-0 0.002-0 0.109-0.022 0.216-0.045 0.323-0.068 0.009-0.002 0.018-0.004 0.027-0.006 0.105-0.023 0.209-0.047 0.312-0.072 0.010-0.002 0.020-0.005 0.030-0.007 0.208-0.050 0.411-0.104 0.61-0.159 0.010-0.003 0.020-0.006 0.030-0.008 0.1-0.028 0.199-0.057 0.296-0.087 0.001-0 0.002-0.001 0.003-0.001 0.1-0.030 0.198-0.061 0.296-0.093 0.003-0.001 0.005-0.002 0.008-0.003 0.096-0.031 0.191-0.063 0.285-0.096 0.007-0.002 0.014-0.005 0.020-0.007 0.188-0.065 0.372-0.133 0.552-0.203 0.005-0.002 0.010-0.004 0.014-0.006 0.275-0.108 0.54-0.221 0.794-0.339 0.003-0.001 0.005-0.002 0.008-0.004 4.929-2.28 6.113-6.246 6.113-6.246h-0v-0zM22.521 14.602c0.285-1.065 1.38-1.698 2.446-1.412 0.191 0.051 0.368 0.129 0.528 0.227-0.009-0-0.018-0.001-0.028-0.001-0.619 0-1.121 0.486-1.121 1.085s0.502 1.085 1.121 1.085c0.421 0 0.786-0.225 0.978-0.556 0.009 0.199-0.012 0.403-0.066 0.605-0.285 1.065-1.381 1.698-2.446 1.412s-1.698-1.38-1.412-2.446z"></path>
</svg>